<svg xmlns="http://www.w3.org/2000/svg" class="wsh-mascot__svg" viewBox="0 0 132 142" aria-hidden="true" focusable="false"><g class="wsh-mascot__bob"><g class="wsh-mascot__leg wsh-mascot__leg--a"><line x1="44" y1="108" x2="44" y2="133" stroke="#17151d" stroke-width="4" stroke-linecap="round"/><rect x="36" y="131" width="15" height="7" fill="#f25e47" stroke="#17151d" stroke-width="2"/></g><g class="wsh-mascot__leg wsh-mascot__leg--b"><line x1="78" y1="108" x2="78" y2="133" stroke="#17151d" stroke-width="4" stroke-linecap="round"/><rect x="70" y="131" width="15" height="7" fill="#f25e47" stroke="#17151d" stroke-width="2"/></g><path d="M10 8H112V82L86 108H10Z" fill="#fffdf8" stroke="#17151d" stroke-width="3"/><path d="M86 108L112 82L90 86Z" fill="#ad8df8" stroke="#17151d" stroke-width="2.5" stroke-linejoin="round"/><g class="wsh-mascot__blink"><rect x="18" y="16" width="26" height="26" fill="#17151d"/><rect x="22" y="20" width="18" height="18" fill="#fffdf8"/><rect class="wsh-mascot__pupil" x="26" y="24" width="10" height="10" fill="#17151d"/></g><g class="wsh-mascot__blink"><rect x="64" y="16" width="26" height="26" fill="#17151d"/><rect x="68" y="20" width="18" height="18" fill="#fffdf8"/><rect class="wsh-mascot__pupil" x="72" y="24" width="10" height="10" fill="#17151d"/></g><path d="M50 56q11 9 22 0" fill="none" stroke="#17151d" stroke-width="3" stroke-linecap="round"/><g fill="#17151d"><rect x="18" y="56" width="7" height="7"/><rect x="26" y="62" width="7" height="7"/><rect x="18" y="76" width="7" height="7"/><rect x="30" y="84" width="7" height="7"/><rect x="22" y="92" width="7" height="7"/><rect x="86" y="58" width="7" height="7"/><rect x="94" y="66" width="7" height="7"/><rect x="86" y="74" width="7" height="7"/><rect x="98" y="82" width="7" height="7"/><rect x="40" y="88" width="7" height="7"/><rect x="52" y="94" width="7" height="7"/><rect x="64" y="86" width="7" height="7"/><rect x="76" y="94" width="7" height="7"/><rect x="46" y="78" width="7" height="7"/><rect x="70" y="76" width="7" height="7"/></g><g class="wsh-mascot__arm"><line x1="112" y1="52" x2="125" y2="37" stroke="#17151d" stroke-width="4" stroke-linecap="round"/><circle cx="126" cy="35" r="5" fill="#fffdf8" stroke="#17151d" stroke-width="2.5"/></g></g></svg>